<?xml version="1.0" encoding="UTF-8"?>
<svg id="Layer_2" data-name="Layer 2" xmlns="http://www.w3.org/2000/svg" viewBox="0 0 516.89 913.8">
  <defs>
    <style>
      .cls-1 {
        fill: #8a2432;
      }
    </style>
  </defs>
  <g id="Layer_1-2" data-name="Layer 1">
    <path class="cls-1" d="M232.37,0c151.04,31.45,237.03,207.67,191.98,346.15,37.73-31.48,53.48-88.11,53.48-138.48,60.81,116.44,45.98,251.47-12.63,365.02-50.33,97.59-85.98,122.72-162.58,188.83-58.4,50.4-70.26,107.76-53.74,150.66-75.52,12.59-155.99-50.71-192.74-106.62-133.22-202.44,10.49-404.29,25.18-432.14C133.77,273.74,279.57,141.59,232.37,0M270.51,271.01c3.49,13.99-1.17,56.01-6.69,75.14-13.42,46.46-44,88.08-71.79,130.09-36.4,55.07-118.32,187.99-62.74,268.74,3.13-126.9,82.09-196.38,98.35-210.39-170.15,238.44-27.01,371.14,16.48,377.94,3.77.62,3.77-.09,2.49-.86-148.66-92.07-10.87-229.07,7.38-244.16,31.86-26.34,46.57-66.49,46.57-66.49-27.32,28.32-60.09,20.06-70.29,15.74,55.07-15.62,108.03-79.46,108.03-147.87-16.81,20.99-36.69,30.4-76.84,33.01,31.5-18.89,68.24-44.04,77.88-99.12,17.86-101.74-69.21-133.34-68.83-131.77"/>
  </g>
</svg>