<?xml version="1.0" encoding="UTF-8"?>
<svg id="Layer_1" data-name="Layer 1" xmlns="http://www.w3.org/2000/svg" viewBox="0 0 576 72">
  <defs>
    <style>
      .cls-1 {
        fill: #177f76;
      }

      .cls-1, .cls-2, .cls-3, .cls-4, .cls-5, .cls-6 {
        fill-rule: evenodd;
      }

      .cls-2 {
        fill: #2a393d;
      }

      .cls-3 {
        fill: #e06326;
      }

      .cls-4 {
        fill: #f3971f;
      }

      .cls-5 {
        fill: #bc2031;
      }

      .cls-6 {
        fill: #deb626;
      }
    </style>
  </defs>
  <polygon class="cls-1" points="4.28 38.66 12.83 38.66 12.83 43.99 4.28 43.99 4.28 38.66 0 38.66 0 33.32 4.28 33.32 4.28 27.99 12.83 27.99 12.83 33.32 4.28 33.32 4.28 38.66"/>
  <polygon class="cls-2" points="0 7.86 4.28 7.86 4.28 13.19 17.11 13.19 17.11 17.32 23.72 17.32 23.72 22.65 32.28 22.65 32.28 27.99 40.83 27.99 40.83 33.32 49.39 33.32 49.39 38.66 40.83 38.66 40.83 38.66 40.83 40.78 40.83 43.99 32.28 43.99 32.28 49.33 23.72 49.33 23.72 54.66 17.11 54.66 17.11 58.78 4.28 58.78 4.28 64.12 0 64.12 0 53.45 6.61 53.45 6.61 49.33 15.17 49.33 15.17 43.99 23.72 43.99 23.72 38.66 32.28 38.66 32.28 38.66 32.28 36.65 32.28 33.32 23.72 33.32 23.72 27.99 15.17 27.99 15.17 22.65 6.61 22.65 6.61 18.53 0 18.53 0 18.53 0 7.86"/>
  <path class="cls-3" d="M100.28,38.66h8.55v5.33h-8.55v-5.33h-8.55v5.33h-8.55v-5.33h8.55v-5.33h-8.55v-5.33h8.55v5.33h8.55v-5.33h8.55v5.33h-8.55v5.33Z"/>
  <path class="cls-2" d="M63.72,22.65h8.56v-5.33h6.61v-4.12h12.83v-5.33h8.55v5.33h12.83v4.12h6.61v5.33h8.56v5.33h8.55v5.33h8.55v5.33c-2.85,0-5.7,0-8.56,0h0c0,.71,0,1.41,0,2.12v3.21h-8.55v5.33h-8.55v5.33h-6.61v4.12h-12.83v5.33h-8.56v-5.33h-12.83v-4.12h-6.61v-5.33h-8.55v-5.33h-8.55v-2.67c0-.89,0-1.78,0-2.67h0c-2.85,0-5.7,0-8.56,0v-5.33h8.55v-5.33h8.55v-5.33h0ZM128.28,38.66v-2.01c0-1.11,0-2.22,0-3.33h-8.55v-5.33h-8.55v-5.33h-8.55v-4.12h-6.61c-2.2,0-4.41,0-6.61,0v4.12h-8.56v5.33h-8.55v5.33h-8.55v3.87c0,.49,0,.97,0,1.46h0c2.85,0,5.7,0,8.55,0v5.33h8.55v5.33h8.56v4.12c4.41,0,8.82,0,13.23,0v-4.12h8.56v-5.33h8.55v-5.33h8.55,0Z"/>
  <path class="cls-5" d="M196.28,38.66h8.56v5.33h-8.56v-5.33c-2.85,0-5.7,0-8.55,0v5.33h-8.55v-5.33h8.55v-5.33h-8.55v-5.33h8.55v5.33h8.55v-5.33h8.56v5.33h-8.56v5.33Z"/>
  <path class="cls-2" d="M159.72,22.65h8.55c0-1.78,0-3.56,0-5.33h6.61v-4.12h12.83v-5.33h8.55v5.33h12.83v4.12h6.61v5.33h8.56v5.33h8.55v5.33h8.55v5.33h-8.56,0c0,.71,0,1.41,0,2.12v3.21h-8.55v5.33h-8.55v5.33h-6.61v4.12c-4.28,0-8.55,0-12.83,0v5.33h-8.56v-5.33h-12.83v-4.12h-6.61v-5.33h-8.56v-5.33h-8.55v-2.67c0-.89,0-1.78,0-2.67h0c-2.85,0-5.7,0-8.56,0v-5.33h8.55v-5.33h8.55v-5.33h0ZM224.28,38.66v-2.01c0-1.11,0-2.22,0-3.33h-8.55v-5.33h-8.55v-5.33h-8.55v-4.12h-6.61c-2.2,0-4.41,0-6.61,0v4.12h-8.56v5.33h-8.55v5.33h-8.55v3.87c0,.49,0,.97,0,1.46h0c2.85,0,5.7,0,8.55,0v5.33h8.55v5.33h8.55v4.12h13.23v-4.12h8.55v-5.33h8.55v-5.33h8.55,0Z"/>
  <path class="cls-6" d="M292.28,38.66h8.56v5.33h-8.56v-5.33h-8.55v5.33h-8.55v-5.33h8.55v-5.33h-8.55v-5.33h8.55v5.33h8.55v-5.33h8.56v5.33h-8.56v5.33Z"/>
  <path class="cls-2" d="M255.72,22.65h8.55v-5.33h6.61v-4.12h12.83v-5.33h8.55v5.33h12.83v4.12h6.61v5.33h8.56v5.33h8.55v5.33h8.55v5.33h-8.56,0c0,.71,0,1.41,0,2.12v3.21h-8.55v5.33h-8.55v5.33h-6.61v4.12c-4.28,0-8.55,0-12.83,0v5.33h-8.56v-5.33c-4.28,0-8.55,0-12.83,0v-4.12h-6.61v-5.33h-8.55v-5.33h-8.55v-2.67c0-.89,0-1.78,0-2.67h0c-2.85,0-5.7,0-8.56,0v-5.33h8.55v-5.33h8.55v-5.33h0ZM320.28,38.66v-2.01c0-1.11,0-2.22,0-3.33h-8.55v-5.33h-8.55v-5.33h-8.55v-4.12h-6.61c-2.2,0-4.41,0-6.61,0v4.12h-8.56v5.33h-8.55v5.33h-8.55v3.87c0,.49,0,.97,0,1.46h0c2.85,0,5.7,0,8.56,0v5.33h8.55v5.33h8.55v4.12h13.23v-4.12h8.55v-5.33h8.55v-5.33h8.55,0Z"/>
  <path class="cls-1" d="M388.28,38.66h8.55v5.33h-8.55v-5.33c-2.85,0-5.7,0-8.55,0v5.33h-8.55v-5.33h8.55v-5.33h-8.55v-5.33h8.55v5.33h8.55v-5.33h8.55v5.33h-8.55v5.33Z"/>
  <path class="cls-2" d="M351.72,22.65h8.56v-5.33h6.61v-4.12h12.83v-5.33h8.56v5.33h12.83v4.12h6.61v5.33h8.56v5.33h8.55v5.33h8.55v5.33h-8.56,0c0,.71,0,1.41,0,2.12v3.21h-8.55v5.33h-8.56v5.33h-6.61v4.12c-4.28,0-8.55,0-12.83,0v5.33h-8.56v-5.33h-12.83v-4.12h-6.61v-5.33h-8.55v-5.33h-8.55v-2.67c0-.89,0-1.78,0-2.67h0c-2.85,0-5.7,0-8.56,0v-5.33c2.85,0,5.7,0,8.55,0v-5.33h8.55v-5.33h0ZM416.28,38.66v-2.01c0-1.11,0-2.22,0-3.33h-8.55v-5.33h-8.55v-5.33h-8.56v-4.12h-6.61c-2.2,0-4.41,0-6.61,0v4.12h-8.56c0,1.78,0,3.56,0,5.33h-8.55v5.33h-8.55v3.87c0,.49,0,.97,0,1.46h0c2.85,0,5.7,0,8.55,0v5.33h8.55v5.33h8.55v4.12c4.41,0,8.82,0,13.23,0v-4.12h8.55v-5.33h8.55v-5.33h8.56,0Z"/>
  <path class="cls-3" d="M484.28,38.66h8.55v5.33h-8.55v-5.33h-8.55v5.33h-8.55v-5.33h8.55v-5.33h-8.55v-5.33h8.55v5.33h8.55v-5.33h8.55v5.33h-8.55v5.33Z"/>
  <path class="cls-2" d="M447.72,22.65h8.55v-5.33h6.61v-4.12h12.83v-5.33h8.55v5.33h12.83v4.12h6.61v5.33h8.56v5.33h8.55v5.33h8.55v5.33h-8.56,0c0,.71,0,1.41,0,2.12v3.21h-8.55v5.33h-8.55v5.33h-6.61v4.12c-4.28,0-8.55,0-12.83,0v5.33c-2.85,0-5.7,0-8.56,0v-5.33h-12.83v-4.12h-6.61v-5.33h-8.55v-5.33h-8.55v-2.67c0-.89,0-1.78,0-2.67h0c-2.85,0-5.7,0-8.56,0v-5.33h8.55v-5.33h8.55v-5.33h0ZM512.28,38.66v-2.01c0-1.11,0-2.22,0-3.33h-8.55v-5.33h-8.55v-5.33h-8.55v-4.12h-6.61c-2.2,0-4.41,0-6.61,0v4.12h-8.56v5.33h-8.55v5.33h-8.55v3.87c0,.49,0,.97,0,1.46h0c2.85,0,5.7,0,8.56,0v5.33h8.55v5.33h8.55v4.12h13.23v-4.12h8.55v-5.33h8.55v-5.33h8.55,0Z"/>
  <polygon class="cls-5" points="576 38.66 571.72 38.66 571.72 43.99 563.17 43.99 563.17 38.66 571.72 38.66 571.72 33.32 563.17 33.32 563.17 27.99 571.72 27.99 571.72 33.32 576 33.32 576 38.66"/>
  <polygon class="cls-2" points="543.72 22.65 552.28 22.65 552.28 17.32 558.89 17.32 558.89 13.19 571.72 13.19 571.72 7.86 576 7.86 576 18.53 569.39 18.53 569.39 22.65 560.83 22.65 560.83 27.99 552.28 27.99 552.28 33.32 543.72 33.32 543.72 37.2 543.72 38.66 543.72 38.66 552.28 38.66 552.28 43.99 560.83 43.99 560.83 49.32 569.39 49.32 569.39 53.45 576 53.45 576 64.12 571.72 64.12 571.72 58.78 558.89 58.78 558.89 54.66 552.28 54.66 552.28 49.32 543.72 49.32 543.72 43.99 535.17 43.99 535.17 41.32 535.17 38.66 535.17 38.66 526.61 38.66 526.61 33.32 535.17 33.32 535.17 27.99 543.72 27.99 543.72 22.65"/>
  <polygon class="cls-4" points="24.28 .1 24.28 5.43 30.89 5.43 30.89 9.56 43.72 9.56 43.72 14.89 52.28 14.89 52.28 9.56 65.11 9.56 65.11 5.43 71.72 5.43 71.72 .1 63.17 .1 54.61 .1 54.61 4.22 48 4.22 41.39 4.22 41.39 .1 32.83 .1 24.28 .1"/>
  <path class="cls-4" d="M120.28.1v5.33h6.61v4.12h12.83v5.33h8.55v-5.33h12.83v-4.12h6.61V.1h-8.55s-.13,0-.13,0h-.13s-.13,0-.13,0h-.13s-.13,0-.13,0h-.13s-.13,0-.13,0h-.13s-.13,0-.13,0h-.13s-.13,0-.13,0h-.13s-.13,0-.13,0h-.13s-.13,0-.13,0h-.13s-.13,0-.13,0h-.13s-.13,0-.13,0h-.13s-.13,0-.13,0h-.13s-.13,0-.13,0h-.13s-.13,0-.13,0h-.13s-.13,0-.13,0h-.13s-.13,0-.13,0h-.13s-.13,0-.13,0h-.13s-.13,0-.13,0h-.13s-.13,0-.13,0h-.13s-.13,0-.13,0h-.13s-.13,0-.13,0h-.13s-.13,0-.13,0h-.13s-.13,0-.13,0h-.13s-.13,0-.13,0h-.13s-.13,0-.13,0h-.13s-.13,0-.13,0h-.13s-.13,0-.13,0h-.13s-.13,0-.13,0h-.13s-.13,0-.13,0h-.13s-.13,0-.13,0h-.13s-.13,0-.13,0h-.13s-.13,0-.13,0h-.13s-.13,0-.13,0h-.13v4.12h-6.61c-2.2,0-4.41,0-6.61,0V.1h-.13s-.13,0-.13,0h-.13s-.13,0-.13,0h-.13s-.13,0-.13,0h-.13s-.13,0-.13,0h-.13s-.13,0-.13,0h-.13s-.13,0-.13,0h-.13s-.13,0-.13,0h-.13s-.13,0-.13,0h-.13s-.13,0-.13,0h-.13s-.13,0-.13,0h-.13s-.13,0-.13,0h-.13s-.13,0-.13,0h-.13s-.13,0-.13,0h-.13s-.13,0-.13,0h-.13s-.13,0-.13,0h-.13s-.13,0-.13,0h-.13s-.13,0-.13,0h-.13s-.13,0-.13,0h-.13s-.13,0-.13,0h-.13s-.13,0-.13,0h-.13s-.13,0-.13,0h-.13s-.13,0-.13,0h-.13s-.13,0-.13,0h-.13s-.13,0-.13,0h-.13s-.13,0-.13,0h-.13s-.13,0-.13,0h-.13s-.13,0-.13,0h-.13s-.13,0-.13,0h-.13s-.13,0-.13,0h-.13s-.13,0-.13,0h-.13s-.13,0-.13,0h-.13s-.13,0-.13,0h-8.55Z"/>
  <path class="cls-4" d="M216.28.1v5.33h6.61v4.12c4.28,0,8.56,0,12.83,0v5.33h8.56v-5.33h12.83v-4.12h6.61V.1h-8.55s-.13,0-.13,0h-.13s-.13,0-.13,0h-.13s-.13,0-.13,0h-.13s-.13,0-.13,0h-.13s-.13,0-.13,0h-.13s-.13,0-.13,0h-.13s-.13,0-.13,0h-.13s-.13,0-.13,0h-.13s-.13,0-.13,0h-.13s-.13,0-.13,0h-.13s-.13,0-.13,0h-.13s-.13,0-.13,0h-.13s-.13,0-.13,0h-.13s-.13,0-.13,0h-.13s-.13,0-.13,0h-.13s-.13,0-.13,0h-.13s-.13,0-.13,0h-.13s-.13,0-.13,0h-.13s-.13,0-.13,0h-.13s-.13,0-.13,0h-.13s-.13,0-.13,0h-.13s-.13,0-.13,0h-.13s-.13,0-.13,0h-.13s-.13,0-.13,0h-.13s-.13,0-.13,0h-.13s-.13,0-.13,0h-.13s-.13,0-.13,0h-.13s-.13,0-.13,0h-.13s-.13,0-.13,0h-.13s-.13,0-.13,0h-.13s-.13,0-.13,0h-.13s-.13,0-.13,0h-.13v4.12h-6.61c-2.2,0-4.41,0-6.61,0V.1h-.13s-.13,0-.13,0h-.13s-.13,0-.13,0h-.13s-.13,0-.13,0h-.13s-.13,0-.13,0h-.13s-.13,0-.13,0h-.13s-.13,0-.13,0h-.13s-.13,0-.13,0h-.13s-.13,0-.13,0h-.13s-.13,0-.13,0h-.13s-.13,0-.13,0h-.13s-.13,0-.13,0h-.13s-.13,0-.13,0h-.13s-.13,0-.13,0h-.13s-.13,0-.13,0h-.13s-.13,0-.13,0h-.13s-.13,0-.13,0h-.13s-.13,0-.13,0h-.13s-.13,0-.13,0h-.13s-.13,0-.13,0h-.13s-.13,0-.13,0h-.13s-.13,0-.13,0h-.13s-.13,0-.13,0h-.13s-.13,0-.13,0h-.13s-.13,0-.13,0h-.13s-.13,0-.13,0h-.13s-.13,0-.13,0h-.13s-.13,0-.13,0h-.13s-.13,0-.13,0h-.13s-.13,0-.13,0h-.13s-.13,0-.13,0h-.13s-.13,0-.13,0h-.13s-.13,0-.13,0h-8.55Z"/>
  <path class="cls-4" d="M312.28.1v5.33h6.61v4.12h12.83v5.33h8.55v-5.33h12.83v-4.12h6.61V.1h-8.55s-.13,0-.13,0h-.13s-.13,0-.13,0h-.13s-.13,0-.13,0h-.13s-.13,0-.13,0h-.13s-.13,0-.13,0h-.13s-.13,0-.13,0h-.13s-.13,0-.13,0h-.13s-.13,0-.13,0h-.13s-.13,0-.13,0h-.13s-.13,0-.13,0h-.13s-.13,0-.13,0h-.13s-.13,0-.13,0h-.13s-.13,0-.13,0h-.13s-.13,0-.13,0h-.13s-.13,0-.13,0h-.13s-.13,0-.13,0h-.13s-.13,0-.13,0h-.13s-.13,0-.13,0h-.13s-.13,0-.13,0h-.13s-.13,0-.13,0h-.13s-.13,0-.13,0h-.13s-.13,0-.13,0h-.13s-.13,0-.13,0h-.13s-.13,0-.13,0h-.13s-.13,0-.13,0h-.13s-.13,0-.13,0h-.13s-.13,0-.13,0h-.13s-.13,0-.13,0h-.13s-.13,0-.13,0h-.13s-.13,0-.13,0h-.13s-.13,0-.13,0h-.13s-.13,0-.13,0h-.13v4.12h-6.61c-2.2,0-4.41,0-6.61,0V.1h-.13s-.13,0-.13,0h-.13s-.13,0-.13,0h-.13s-.13,0-.13,0h-.13s-.13,0-.13,0h-.13s-.13,0-.13,0h-.13s-.13,0-.13,0h-.13s-.13,0-.13,0h-.13s-.13,0-.13,0h-.13s-.13,0-.13,0h-.13s-.13,0-.13,0h-.13s-.13,0-.13,0h-.13s-.13,0-.13,0h-.13s-.13,0-.13,0h-.13s-.13,0-.13,0h-.13s-.13,0-.13,0h-.13s-.13,0-.13,0h-.13s-.13,0-.13,0h-.13s-.13,0-.13,0h-.13s-.13,0-.13,0h-.13s-.13,0-.13,0h-.13s-.13,0-.13,0h-.13s-.13,0-.13,0h-.13s-.13,0-.13,0h-.13s-.13,0-.13,0h-.13s-.13,0-.13,0h-.13s-.13,0-.13,0h-.13s-.13,0-.13,0h-.13s-.13,0-.13,0h-.13s-.13,0-.13,0h-.13s-.13,0-.13,0h-.13s-.13,0-.13,0h-.13s-.13,0-.13,0h-8.55Z"/>
  <path class="cls-4" d="M408.28.1v5.33h6.61v4.12c4.28,0,8.55,0,12.83,0v5.33h8.55v-5.33h12.83v-4.12h6.61V.1h-8.55s-.13,0-.13,0h-.13s-.13,0-.13,0h-.13s-.13,0-.13,0h-.13s-.13,0-.13,0h-.13s-.13,0-.13,0h-.13s-.13,0-.13,0h-.13s-.13,0-.13,0h-.13s-.13,0-.13,0h-.13s-.13,0-.13,0h-.13s-.13,0-.13,0h-.13s-.13,0-.13,0h-.13s-.13,0-.13,0h-.13s-.13,0-.13,0h-.13s-.13,0-.13,0h-.13s-.13,0-.13,0h-.13s-.13,0-.13,0h-.13s-.13,0-.13,0h-.13s-.13,0-.13,0h-.13s-.13,0-.13,0h-.13s-.13,0-.13,0h-.13s-.13,0-.13,0h-.13s-.13,0-.13,0h-.13s-.13,0-.13,0h-.13s-.13,0-.13,0h-.13s-.13,0-.13,0h-.13s-.13,0-.13,0h-.13s-.13,0-.13,0h-.13s-.13,0-.13,0h-.13s-.13,0-.13,0h-.13s-.13,0-.13,0h-.13s-.13,0-.13,0h-.13s-.13,0-.13,0h-.13v4.12h-6.61c-2.2,0-4.41,0-6.61,0V.1h-.13s-.13,0-.13,0h-.13s-.13,0-.13,0h-.13s-.13,0-.13,0h-.13s-.13,0-.13,0h-.13s-.13,0-.13,0h-.13s-.13,0-.13,0h-.13s-.13,0-.13,0h-.13s-.13,0-.13,0h-.13s-.13,0-.13,0h-.13s-.13,0-.13,0h-.13s-.13,0-.13,0h-.13s-.13,0-.13,0h-.13s-.13,0-.13,0h-.13s-.13,0-.13,0h-.13s-.13,0-.13,0h-.13s-.13,0-.13,0h-.13s-.13,0-.13,0h-.13s-.13,0-.13,0h-.13s-.13,0-.13,0h-.13s-.13,0-.13,0h-.13s-.13,0-.13,0h-.13s-.13,0-.13,0h-.13s-.13,0-.13,0h-.13s-.13,0-.13,0h-.13s-.13,0-.13,0h-.13s-.13,0-.13,0h-.13s-.13,0-.13,0h-.13s-.13,0-.13,0h-.13s-.13,0-.13,0h-.13s-.13,0-.13,0h-.13s-.13,0-.13,0h-.13s-.13,0-.13,0h-8.55Z"/>
  <path class="cls-4" d="M504.28.1v5.33h6.61v4.12h12.83v5.33h8.55v-5.33h12.83v-4.12h6.61V.1h-8.55s-.13,0-.13,0h-.13s-.13,0-.13,0h-.13s-.13,0-.13,0h-.13s-.13,0-.13,0h-.13s-.13,0-.13,0h-.13s-.13,0-.13,0h-.13s-.13,0-.13,0h-.13s-.13,0-.13,0h-.13s-.13,0-.13,0h-.13s-.13,0-.13,0h-.13s-.13,0-.13,0h-.13s-.13,0-.13,0h-.13s-.13,0-.13,0h-.13s-.13,0-.13,0h-.13s-.13,0-.13,0h-.13s-.13,0-.13,0h-.13s-.13,0-.13,0h-.13s-.13,0-.13,0h-.13s-.13,0-.13,0h-.13s-.13,0-.13,0h-.13s-.13,0-.13,0h-.13s-.13,0-.13,0h-.13s-.13,0-.13,0h-.13s-.13,0-.13,0h-.13s-.13,0-.13,0h-.13s-.13,0-.13,0h-.13s-.13,0-.13,0h-.13s-.13,0-.13,0h-.13s-.13,0-.13,0h-.13s-.13,0-.13,0h-.13s-.13,0-.13,0h-.13s-.13,0-.13,0h-.13v4.12h-6.61c-2.2,0-4.41,0-6.61,0V.1h-.13s-.13,0-.13,0h-.13s-.13,0-.13,0h-.13s-.13,0-.13,0h-.13s-.13,0-.13,0h-.13s-.13,0-.13,0h-.13s-.13,0-.13,0h-.13s-.13,0-.13,0h-.13s-.13,0-.13,0h-.13s-.13,0-.13,0h-.13s-.13,0-.13,0h-.13s-.13,0-.13,0h-.13s-.13,0-.13,0h-.13s-.13,0-.13,0h-.13s-.13,0-.13,0h-.13s-.13,0-.13,0h-.13s-.13,0-.13,0h-.13s-.13,0-.13,0h-.13s-.13,0-.13,0h-.13s-.13,0-.13,0h-.13s-.13,0-.13,0h-.13s-.13,0-.13,0h-.13s-.13,0-.13,0h-.13s-.13,0-.13,0h-.13s-.13,0-.13,0h-.13s-.13,0-.13,0h-.13s-.13,0-.13,0h-.13s-.13,0-.13,0h-.13s-.13,0-.13,0h-.13s-.13,0-.13,0h-.13s-.13,0-.13,0h-.13s-.13,0-.13,0h-.13s-.13,0-.13,0h-8.55Z"/>
  <polygon class="cls-4" points="24.28 71.88 24.28 66.54 30.89 66.54 30.89 62.42 43.72 62.42 43.72 57.08 52.28 57.08 52.28 62.42 65.11 62.42 65.11 66.54 71.72 66.54 71.72 71.88 63.17 71.88 54.61 71.88 54.61 67.75 48 67.75 41.39 67.75 41.39 71.88 32.83 71.88 24.28 71.88"/>
  <path class="cls-4" d="M120.28,71.88v-5.33h6.61v-4.12h12.83v-5.33h8.55v5.33c4.28,0,8.56,0,12.83,0v4.12h6.61v5.33s-8.55,0-8.55,0h-.13s-.13,0-.13,0h-.13s-.13,0-.13,0h-.13s-.13,0-.13,0h-.13s-.13,0-.13,0h-.13s-.13,0-.13,0h-.13s-.13,0-.13,0h-.13s-.13,0-.13,0h-.13s-.13,0-.13,0h-.13s-.13,0-.13,0h-.13s-.13,0-.13,0h-.13s-.13,0-.13,0h-.13s-.13,0-.13,0h-.13s-.13,0-.13,0h-.13s-.13,0-.13,0h-.13s-.13,0-.13,0h-.13s-.13,0-.13,0h-.13s-.13,0-.13,0h-.13s-.13,0-.13,0h-.13s-.13,0-.13,0h-.13s-.13,0-.13,0h-.13s-.13,0-.13,0h-.13s-.13,0-.13,0h-.13s-.13,0-.13,0h-.13s-.13,0-.13,0h-.13s-.13,0-.13,0h-.13s-.13,0-.13,0h-.13s-.13,0-.13,0h-.13s-.13,0-.13,0h-.13s-.13,0-.13,0h-.13s-.13,0-.13,0h-.13s-.13,0-.13,0h-.13s-.13,0-.13,0v-4.12h-6.61c-2.2,0-4.41,0-6.61,0v4.12s-.13,0-.13,0h-.13s-.13,0-.13,0h-.13s-.13,0-.13,0h-.13s-.13,0-.13,0h-.13s-.13,0-.13,0h-.13s-.13,0-.13,0h-.13s-.13,0-.13,0h-.13s-.13,0-.13,0h-.13s-.13,0-.13,0h-.13s-.13,0-.13,0h-.13s-.13,0-.13,0h-.13s-.13,0-.13,0h-.13s-.13,0-.13,0h-.13s-.13,0-.13,0h-.13s-.13,0-.13,0h-.13s-.13,0-.13,0h-.13s-.13,0-.13,0h-.13s-.13,0-.13,0h-.13s-.13,0-.13,0h-.13s-.13,0-.13,0h-.13s-.13,0-.13,0h-.13s-.13,0-.13,0h-.13s-.13,0-.13,0h-.13s-.13,0-.13,0h-.13s-.13,0-.13,0h-.13s-.13,0-.13,0h-.13s-.13,0-.13,0h-.13s-.13,0-.13,0h-.13s-.13,0-.13,0h-.13s-.13,0-.13,0h-.13s-.13,0-.13,0h-.13s-.13,0-.13,0h-.13s-8.55,0-8.55,0Z"/>
  <path class="cls-4" d="M216.28,71.88v-5.33h6.61v-4.12h12.83v-5.33h8.56v5.33c4.28,0,8.56,0,12.83,0v4.12h6.61v5.33s-8.55,0-8.55,0h-.13s-.13,0-.13,0h-.13s-.13,0-.13,0h-.13s-.13,0-.13,0h-.13s-.13,0-.13,0h-.13s-.13,0-.13,0h-.13s-.13,0-.13,0h-.13s-.13,0-.13,0h-.13s-.13,0-.13,0h-.13s-.13,0-.13,0h-.13s-.13,0-.13,0h-.13s-.13,0-.13,0h-.13s-.13,0-.13,0h-.13s-.13,0-.13,0h-.13s-.13,0-.13,0h-.13s-.13,0-.13,0h-.13s-.13,0-.13,0h-.13s-.13,0-.13,0h-.13s-.13,0-.13,0h-.13s-.13,0-.13,0h-.13s-.13,0-.13,0h-.13s-.13,0-.13,0h-.13s-.13,0-.13,0h-.13s-.13,0-.13,0h-.13s-.13,0-.13,0h-.13s-.13,0-.13,0h-.13s-.13,0-.13,0h-.13s-.13,0-.13,0h-.13s-.13,0-.13,0h-.13s-.13,0-.13,0h-.13s-.13,0-.13,0h-.13s-.13,0-.13,0h-.13s-.13,0-.13,0v-4.12h-6.61c-2.2,0-4.41,0-6.61,0v4.12s-.13,0-.13,0h-.13s-.13,0-.13,0h-.13s-.13,0-.13,0h-.13s-.13,0-.13,0h-.13s-.13,0-.13,0h-.13s-.13,0-.13,0h-.13s-.13,0-.13,0h-.13s-.13,0-.13,0h-.13s-.13,0-.13,0h-.13s-.13,0-.13,0h-.13s-.13,0-.13,0h-.13s-.13,0-.13,0h-.13s-.13,0-.13,0h-.13s-.13,0-.13,0h-.13s-.13,0-.13,0h-.13s-.13,0-.13,0h-.13s-.13,0-.13,0h-.13s-.13,0-.13,0h-.13s-.13,0-.13,0h-.13s-.13,0-.13,0h-.13s-.13,0-.13,0h-.13s-.13,0-.13,0h-.13s-.13,0-.13,0h-.13s-.13,0-.13,0h-.13s-.13,0-.13,0h-.13s-.13,0-.13,0h-.13s-.13,0-.13,0h-.13s-.13,0-.13,0h-.13s-.13,0-.13,0h-.13s-.13,0-.13,0h-.13s-.13,0-.13,0h-.13s-.13,0-.13,0h-.13s-8.55,0-8.55,0Z"/>
  <path class="cls-4" d="M312.28,71.88v-5.33h6.61v-4.12c4.28,0,8.56,0,12.83,0v-5.33h8.55v5.33c4.28,0,8.56,0,12.83,0v4.12h6.61v5.33s-8.55,0-8.55,0h-.13s-.13,0-.13,0h-.13s-.13,0-.13,0h-.13s-.13,0-.13,0h-.13s-.13,0-.13,0h-.13s-.13,0-.13,0h-.13s-.13,0-.13,0h-.13s-.13,0-.13,0h-.13s-.13,0-.13,0h-.13s-.13,0-.13,0h-.13s-.13,0-.13,0h-.13s-.13,0-.13,0h-.13s-.13,0-.13,0h-.13s-.13,0-.13,0h-.13s-.13,0-.13,0h-.13s-.13,0-.13,0h-.13s-.13,0-.13,0h-.13s-.13,0-.13,0h-.13s-.13,0-.13,0h-.13s-.13,0-.13,0h-.13s-.13,0-.13,0h-.13s-.13,0-.13,0h-.13s-.13,0-.13,0h-.13s-.13,0-.13,0h-.13s-.13,0-.13,0h-.13s-.13,0-.13,0h-.13s-.13,0-.13,0h-.13s-.13,0-.13,0h-.13s-.13,0-.13,0h-.13s-.13,0-.13,0h-.13s-.13,0-.13,0h-.13s-.13,0-.13,0h-.13s-.13,0-.13,0v-4.12h-6.61c-2.2,0-4.41,0-6.61,0v4.12s-.13,0-.13,0h-.13s-.13,0-.13,0h-.13s-.13,0-.13,0h-.13s-.13,0-.13,0h-.13s-.13,0-.13,0h-.13s-.13,0-.13,0h-.13s-.13,0-.13,0h-.13s-.13,0-.13,0h-.13s-.13,0-.13,0h-.13s-.13,0-.13,0h-.13s-.13,0-.13,0h-.13s-.13,0-.13,0h-.13s-.13,0-.13,0h-.13s-.13,0-.13,0h-.13s-.13,0-.13,0h-.13s-.13,0-.13,0h-.13s-.13,0-.13,0h-.13s-.13,0-.13,0h-.13s-.13,0-.13,0h-.13s-.13,0-.13,0h-.13s-.13,0-.13,0h-.13s-.13,0-.13,0h-.13s-.13,0-.13,0h-.13s-.13,0-.13,0h-.13s-.13,0-.13,0h-.13s-.13,0-.13,0h-.13s-.13,0-.13,0h-.13s-.13,0-.13,0h-.13s-.13,0-.13,0h-.13s-.13,0-.13,0h-.13s-.13,0-.13,0h-.13s-.13,0-.13,0h-.13s-8.55,0-8.55,0Z"/>
  <path class="cls-4" d="M408.28,71.88v-5.33h6.61v-4.12h12.83v-5.33h8.55v5.33h12.83v4.12h6.61v5.33s-8.55,0-8.55,0h-.13s-.13,0-.13,0h-.13s-.13,0-.13,0h-.13s-.13,0-.13,0h-.13s-.13,0-.13,0h-.13s-.13,0-.13,0h-.13s-.13,0-.13,0h-.13s-.13,0-.13,0h-.13s-.13,0-.13,0h-.13s-.13,0-.13,0h-.13s-.13,0-.13,0h-.13s-.13,0-.13,0h-.13s-.13,0-.13,0h-.13s-.13,0-.13,0h-.13s-.13,0-.13,0h-.13s-.13,0-.13,0h-.13s-.13,0-.13,0h-.13s-.13,0-.13,0h-.13s-.13,0-.13,0h-.13s-.13,0-.13,0h-.13s-.13,0-.13,0h-.13s-.13,0-.13,0h-.13s-.13,0-.13,0h-.13s-.13,0-.13,0h-.13s-.13,0-.13,0h-.13s-.13,0-.13,0h-.13s-.13,0-.13,0h-.13s-.13,0-.13,0h-.13s-.13,0-.13,0h-.13s-.13,0-.13,0h-.13s-.13,0-.13,0h-.13s-.13,0-.13,0h-.13s-.13,0-.13,0v-4.12c-2.2,0-4.41,0-6.61,0h-6.61v4.12s-.13,0-.13,0h-.13s-.13,0-.13,0h-.13s-.13,0-.13,0h-.13s-.13,0-.13,0h-.13s-.13,0-.13,0h-.13s-.13,0-.13,0h-.13s-.13,0-.13,0h-.13s-.13,0-.13,0h-.13s-.13,0-.13,0h-.13s-.13,0-.13,0h-.13s-.13,0-.13,0h-.13s-.13,0-.13,0h-.13s-.13,0-.13,0h-.13s-.13,0-.13,0h-.13s-.13,0-.13,0h-.13s-.13,0-.13,0h-.13s-.13,0-.13,0h-.13s-.13,0-.13,0h-.13s-.13,0-.13,0h-.13s-.13,0-.13,0h-.13s-.13,0-.13,0h-.13s-.13,0-.13,0h-.13s-.13,0-.13,0h-.13s-.13,0-.13,0h-.13s-.13,0-.13,0h-.13s-.13,0-.13,0h-.13s-.13,0-.13,0h-.13s-.13,0-.13,0h-.13s-.13,0-.13,0h-.13s-.13,0-.13,0h-.13s-.13,0-.13,0h-.13s-.13,0-.13,0h-.13s-8.55,0-8.55,0Z"/>
  <path class="cls-4" d="M504.28,71.88v-5.33h6.61v-4.12c4.28,0,8.56,0,12.83,0v-5.33h8.55v5.33c4.28,0,8.56,0,12.83,0v4.12h6.61v5.33s-8.55,0-8.55,0h-.13s-.13,0-.13,0h-.13s-.13,0-.13,0h-.13s-.13,0-.13,0h-.13s-.13,0-.13,0h-.13s-.13,0-.13,0h-.13s-.13,0-.13,0h-.13s-.13,0-.13,0h-.13s-.13,0-.13,0h-.13s-.13,0-.13,0h-.13s-.13,0-.13,0h-.13s-.13,0-.13,0h-.13s-.13,0-.13,0h-.13s-.13,0-.13,0h-.13s-.13,0-.13,0h-.13s-.13,0-.13,0h-.13s-.13,0-.13,0h-.13s-.13,0-.13,0h-.13s-.13,0-.13,0h-.13s-.13,0-.13,0h-.13s-.13,0-.13,0h-.13s-.13,0-.13,0h-.13s-.13,0-.13,0h-.13s-.13,0-.13,0h-.13s-.13,0-.13,0h-.13s-.13,0-.13,0h-.13s-.13,0-.13,0h-.13s-.13,0-.13,0h-.13s-.13,0-.13,0h-.13s-.13,0-.13,0h-.13s-.13,0-.13,0h-.13s-.13,0-.13,0h-.13s-.13,0-.13,0v-4.12h-6.61c-2.2,0-4.41,0-6.61,0v4.12s-.13,0-.13,0h-.13s-.13,0-.13,0h-.13s-.13,0-.13,0h-.13s-.13,0-.13,0h-.13s-.13,0-.13,0h-.13s-.13,0-.13,0h-.13s-.13,0-.13,0h-.13s-.13,0-.13,0h-.13s-.13,0-.13,0h-.13s-.13,0-.13,0h-.13s-.13,0-.13,0h-.13s-.13,0-.13,0h-.13s-.13,0-.13,0h-.13s-.13,0-.13,0h-.13s-.13,0-.13,0h-.13s-.13,0-.13,0h-.13s-.13,0-.13,0h-.13s-.13,0-.13,0h-.13s-.13,0-.13,0h-.13s-.13,0-.13,0h-.13s-.13,0-.13,0h-.13s-.13,0-.13,0h-.13s-.13,0-.13,0h-.13s-.13,0-.13,0h-.13s-.13,0-.13,0h-.13s-.13,0-.13,0h-.13s-.13,0-.13,0h-.13s-.13,0-.13,0h-.13s-.13,0-.13,0h-.13s-.13,0-.13,0h-.13s-.13,0-.13,0h-.13s-.13,0-.13,0h-.13s-8.55,0-8.55,0Z"/>
  <path class="cls-6" d="M0,.1h8.55s0,5.33,0,5.33H0S0,.1,0,.1H0ZM0,71.9v-5.33s8.55,0,8.55,0v5.33s-8.55,0-8.55,0Z"/>
  <path class="cls-1" d="M87.44.1h17.11v5.33h-17.11V.1h0ZM87.44,66.57h17.11v5.33h-17.11v-5.33Z"/>
  <path class="cls-3" d="M183.44.1c5.7,0,11.41,0,17.11,0v5.33h-17.11V.1h0ZM183.44,66.57h17.11v5.33h-17.11v-5.33Z"/>
  <path class="cls-5" d="M279.45.1h17.11v5.33h-17.11V.1h0ZM279.45,66.57h17.11v5.33h-17.11v-5.33Z"/>
  <path class="cls-6" d="M375.45.1h17.11v5.33h-17.11V.1h0ZM375.45,66.57h17.11v5.33h-17.11v-5.33Z"/>
  <path class="cls-1" d="M471.45.1h17.11c0,1.78,0,3.56,0,5.33h-17.11V.1h0ZM471.45,66.57c5.7,0,11.41,0,17.11,0v5.33h-17.11v-5.33Z"/>
  <path class="cls-3" d="M567.45.1h8.55s0,5.33,0,5.33h-8.55s0-5.33,0-5.33h0ZM576,66.57v5.33s-8.55,0-8.55,0v-5.33s8.55,0,8.55,0Z"/>
</svg>