<?xml version="1.0" encoding="UTF-8"?>
<svg id="Layer_1" data-name="Layer 1" xmlns="http://www.w3.org/2000/svg" viewBox="0 0 71.78 576">
  <defs>
    <style>
      .cls-1 {
        fill: #177f76;
      }

      .cls-1, .cls-2, .cls-3, .cls-4, .cls-5, .cls-6 {
        fill-rule: evenodd;
      }

      .cls-2 {
        fill: #2a393d;
      }

      .cls-3 {
        fill: #e06326;
      }

      .cls-4 {
        fill: #f3971f;
      }

      .cls-5 {
        fill: #bc2031;
      }

      .cls-6 {
        fill: #deb626;
      }
    </style>
  </defs>
  <polygon class="cls-1" points="38.56 571.72 38.56 563.17 43.89 563.17 43.89 571.72 38.56 571.72 38.56 576 33.22 576 33.22 571.72 27.89 571.72 27.89 563.17 33.22 563.17 33.22 571.72 38.56 571.72"/>
  <polygon class="cls-2" points="7.76 576 7.76 571.72 13.1 571.72 13.1 558.89 17.22 558.89 17.22 552.28 22.55 552.28 22.55 543.72 27.89 543.72 27.89 535.17 33.22 535.17 33.22 526.61 38.56 526.61 38.56 535.17 38.56 535.17 40.68 535.17 43.89 535.17 43.89 543.72 49.23 543.72 49.23 552.28 54.56 552.28 54.56 558.89 58.68 558.89 58.68 571.72 64.02 571.72 64.02 576 53.35 576 53.35 569.39 49.23 569.39 49.23 560.83 43.89 560.83 43.89 552.28 38.56 552.28 38.56 543.72 38.56 543.72 36.55 543.72 33.22 543.72 33.22 552.28 27.89 552.28 27.89 560.83 22.55 560.83 22.55 569.39 18.43 569.39 18.43 576 18.43 576 7.76 576"/>
  <path class="cls-3" d="M38.56,475.72v-8.55h5.33v8.55h-5.33v8.55h5.33v8.55h-5.33v-8.55h-5.33v8.55h-5.33v-8.55h5.33v-8.55h-5.33v-8.55h5.33v8.55h5.33Z"/>
  <path class="cls-2" d="M22.55,512.28v-8.56h-5.33v-6.61h-4.12v-12.83h-5.33v-8.55h5.33v-12.83h4.12v-6.61h5.33v-8.56h5.33v-8.55h5.33v-8.55h5.33v8.56h5.33v8.55h5.33v8.55h5.33v6.61h4.12v12.83h5.33v8.56h-5.33v12.83h-4.12v6.61h-5.33v8.55h-5.33v8.55h-5.33v8.56h-5.33v-8.55h-5.33v-8.55h-5.33ZM38.56,447.72h-5.33v8.55h-5.33v8.55h-5.33v8.55h-4.12v13.23h4.12v8.56h5.33v8.55h5.33v8.55h5.33v-8.55h5.33v-8.55h5.33v-8.56h4.12v-13.23h-4.12v-8.56h-5.33v-8.55h-5.33v-8.55h0Z"/>
  <path class="cls-5" d="M38.56,379.72v-8.56h5.33v8.56h-5.33v8.55h5.33v8.55h-5.33v-8.55h-5.33v8.55h-5.33v-8.55h5.33v-8.55h-5.33v-8.56h5.33v8.56h5.33Z"/>
  <path class="cls-2" d="M22.55,416.28v-8.55h-5.33v-6.61h-4.12v-12.83h-5.33v-8.55h5.33v-12.83h4.12v-6.61h5.33v-8.56h5.33v-8.55h5.33v-8.55h5.33v8.56h5.33v8.55h5.33v8.55h5.33v6.61h4.12v12.83h5.33v8.56h-5.33v12.83h-4.12v6.61h-5.33v8.56h-5.33v8.55h-5.33v8.56h-5.33v-8.55h-5.33v-8.55h-5.33ZM38.56,351.72h-5.33v8.55h-5.33v8.55h-5.33v8.55h-4.12v13.23h4.12v8.56h5.33v8.55h5.33v8.55h5.33v-8.55h5.33v-8.55h5.33v-8.55h4.12v-13.23h-4.12v-8.55h-5.33v-8.55h-5.33v-8.55h0Z"/>
  <path class="cls-6" d="M38.56,283.72v-8.56h5.33v8.56h-5.33v8.55h5.33v8.55h-5.33v-8.55h-5.33v8.55h-5.33v-8.55h5.33v-8.55h-5.33v-8.56h5.33v8.56h5.33Z"/>
  <path class="cls-2" d="M22.55,320.28v-8.55h-5.33v-6.61h-4.12v-12.83h-5.33v-8.55h5.33v-12.83h4.12v-6.61h5.33v-8.56h5.33v-8.55h5.33v-8.55h5.33v8.56h5.33v8.55h5.33v8.55h5.33v6.61h4.12v12.83h5.33v8.56h-5.33v12.83h-4.12v6.61h-5.33v8.55h-5.33v8.55h-5.33v8.56h-5.33v-8.55h-5.33v-8.55h-5.33ZM38.56,255.72h-5.33v8.55h-5.33v8.55h-5.33v8.55h-4.12v13.23h4.12v8.56h5.33v8.55h5.33v8.55h5.33v-8.56h5.33v-8.55h5.33v-8.55h4.12v-13.23h-4.12v-8.55h-5.33v-8.55h-5.33v-8.55h0Z"/>
  <path class="cls-1" d="M38.56,187.72v-8.55h5.33v8.55h-5.33v8.55h5.33v8.55h-5.33v-8.55h-5.33v8.55h-5.33v-8.55h5.33v-8.55h-5.33v-8.55h5.33v8.55h5.33Z"/>
  <path class="cls-2" d="M22.55,224.28v-8.56h-5.33v-6.61h-4.12v-12.83h-5.33v-8.56h5.33v-12.83h4.12v-6.61h5.33v-8.56h5.33v-8.55h5.33v-8.55h5.33v8.56h5.33v8.55h5.33v8.56h5.33v6.61h4.12v12.83h5.33v8.56h-5.33v12.83h-4.12v6.61h-5.33v8.55h-5.33v8.55h-5.33v8.56h-5.33v-8.55h-5.33v-8.55h-5.33ZM38.56,159.72h-5.33v8.55h-5.33v8.55h-5.33v8.56h-4.12v13.23h4.12v8.56h5.33v8.55h5.33v8.55h5.33v-8.55h5.33v-8.55h5.33v-8.55h4.12v-13.23h-4.12v-8.55h-5.33v-8.55h-5.33v-8.56h0Z"/>
  <path class="cls-3" d="M38.56,91.72v-8.55h5.33v8.55h-5.33v8.55h5.33v8.55h-5.33v-8.55h-5.33v8.55h-5.33v-8.55h5.33v-8.55h-5.33v-8.55h5.33v8.55h5.33Z"/>
  <path class="cls-2" d="M22.55,128.28v-8.55h-5.33v-6.61h-4.12v-12.83h-5.33v-8.55h5.33v-12.83h4.12v-6.61h5.33v-8.56h5.33v-8.55h5.33v-8.55h5.33v8.56h5.33v8.55h5.33v8.55h5.33v6.61h4.12v12.83h5.33v8.56h-5.33v12.83h-4.12v6.61h-5.33v8.55h-5.33v8.55h-5.33v8.56h-5.33v-8.55h-5.33v-8.55h-5.33ZM38.56,63.72h-5.33v8.55h-5.33v8.55h-5.33v8.55h-4.12v13.23h4.12v8.56h5.33v8.55h5.33v8.55h5.33v-8.56h5.33v-8.55h5.33v-8.55h4.12v-13.23h-4.12v-8.55h-5.33v-8.55h-5.33v-8.55h0Z"/>
  <polygon class="cls-5" points="38.56 0 38.56 4.28 43.89 4.28 43.89 12.83 38.56 12.83 38.56 4.28 33.22 4.28 33.22 12.83 27.89 12.83 27.89 4.28 33.22 4.28 33.22 0 38.56 0"/>
  <polygon class="cls-2" points="22.55 32.28 22.55 23.72 17.22 23.72 17.22 17.11 13.1 17.11 13.1 4.28 7.76 4.28 7.76 0 18.43 0 18.43 6.61 22.55 6.61 22.55 15.17 27.89 15.17 27.89 23.72 33.22 23.72 33.22 32.28 37.1 32.28 38.56 32.28 38.56 32.28 38.56 23.72 43.89 23.72 43.89 15.17 49.23 15.17 49.23 6.61 53.35 6.61 53.35 0 64.02 0 64.02 4.28 58.68 4.28 58.68 17.11 54.56 17.11 54.56 23.72 49.23 23.72 49.23 32.28 43.89 32.28 43.89 40.83 41.22 40.83 38.56 40.83 38.56 40.83 38.56 49.39 33.22 49.39 33.22 40.83 27.89 40.83 27.89 32.28 22.55 32.28"/>
  <polygon class="cls-4" points="0 551.72 5.34 551.72 5.34 545.11 9.46 545.11 9.46 532.28 14.79 532.28 14.79 523.72 9.46 523.72 9.46 510.89 5.34 510.89 5.34 504.28 0 504.28 0 512.83 0 521.39 4.12 521.39 4.12 528 4.12 534.61 0 534.61 0 543.17 0 551.72"/>
  <path class="cls-4" d="M0,455.72h5.33v-6.61h4.12v-12.83h5.33v-8.55h-5.33v-12.83h-4.12v-6.61H0v17.11h4.12v13.23H0v17.11Z"/>
  <path class="cls-4" d="M0,359.72h5.33v-6.61h4.12v-12.83h5.33v-8.56h-5.33v-12.83h-4.12v-6.61H0v17.11h4.12v13.23H0v17.11Z"/>
  <path class="cls-4" d="M0,263.72h5.33v-6.61h4.12v-12.83h5.33v-8.55h-5.33v-12.83h-4.12v-6.61H0v17.11h4.12v13.23H0v17.11Z"/>
  <path class="cls-4" d="M0,167.72h5.33v-6.61h4.12v-12.83h5.33v-8.55h-5.33v-12.83h-4.12v-6.61H0v17.11h4.12v13.23H0v17.11Z"/>
  <path class="cls-4" d="M0,71.72h5.33v-6.61h4.12v-12.83h5.33v-8.55h-5.33v-12.83h-4.12v-6.61H0v17.11h4.12v13.23H0v17.11Z"/>
  <polygon class="cls-4" points="71.78 551.72 66.44 551.72 66.44 545.11 62.32 545.11 62.32 532.28 56.99 532.28 56.99 523.72 62.32 523.72 62.32 510.89 66.44 510.89 66.44 504.28 71.78 504.28 71.78 512.83 71.78 521.39 67.65 521.39 67.65 528 67.65 534.61 71.78 534.61 71.78 543.17 71.78 551.72"/>
  <path class="cls-4" d="M71.78,455.72h-5.33v-6.61h-4.12v-12.83h-5.33v-8.55h5.33v-12.83h4.12v-6.61h5.33v17.11h-4.12v13.23h4.12v17.11Z"/>
  <path class="cls-4" d="M71.78,359.72h-5.33v-6.61h-4.12v-12.83h-5.33v-8.56h5.33v-12.83h4.12v-6.61h5.33v17.11h-4.12v13.23h4.12v17.11Z"/>
  <path class="cls-4" d="M71.78,263.72h-5.33v-6.61h-4.12v-12.83h-5.33v-8.55h5.33v-12.83h4.12v-6.61h5.33v17.11h-4.12v13.23h4.12v17.11Z"/>
  <path class="cls-4" d="M71.78,167.72h-5.33v-6.61h-4.12v-12.83h-5.33v-8.55h5.33v-12.83h4.12v-6.61h5.33v17.11h-4.12v13.23h4.12v17.11Z"/>
  <path class="cls-4" d="M71.78,71.72h-5.33v-6.61h-4.12v-12.83h-5.33v-8.55h5.33v-12.83h4.12v-6.61h5.33v17.11h-4.12v13.23h4.12v17.11Z"/>
  <path class="cls-6" d="M0,576v-8.55h5.33v8.55H0ZM71.8,576h-5.33v-8.55h5.33v8.55Z"/>
  <path class="cls-1" d="M0,488.56v-17.11h5.33v17.11H0ZM66.47,488.56v-17.11h5.33v17.11h-5.33Z"/>
  <path class="cls-3" d="M0,392.56v-17.11h5.33v17.11H0ZM66.47,392.56v-17.11h5.33v17.11h-5.33Z"/>
  <path class="cls-5" d="M0,296.55v-17.11h5.33v17.11H0ZM66.47,296.55v-17.11h5.33v17.11h-5.33Z"/>
  <path class="cls-6" d="M0,200.55v-17.11h5.33v17.11H0ZM66.47,200.55v-17.11h5.33v17.11h-5.33Z"/>
  <path class="cls-1" d="M0,104.55v-17.11h5.33v17.11H0ZM66.47,104.55v-17.11h5.33v17.11h-5.33Z"/>
  <path class="cls-3" d="M0,8.56V0h5.33v8.55H0ZM66.47,0h5.33v8.55h-5.33V0Z"/>
</svg>