<?xml version="1.0" encoding="UTF-8"?>
<svg id="Layer_1" data-name="Layer 1" xmlns="http://www.w3.org/2000/svg" viewBox="0 0 71.78 576">
  <defs>
    <style>
      .cls-1 {
        fill: #df8d3b;
      }

      .cls-1, .cls-2, .cls-3, .cls-4 {
        fill-rule: evenodd;
      }

      .cls-2 {
        fill: #396164;
      }

      .cls-3 {
        fill: #da453e;
      }

      .cls-4 {
        fill: #deb626;
      }
    </style>
  </defs>
  <polygon class="cls-2" points="9.6 573.97 36.24 546.23 64.82 576 64.82 576 59.08 576 59.08 576 36.24 552.22 13.4 576 13.4 576 7.65 576 7.65 576 9.6 573.97"/>
  <path class="cls-2" d="M9.6,509.97c8.88-9.25,17.76-18.49,26.64-27.74,9.53,9.92,19.06,19.85,28.59,29.77-9.53,9.93-19.06,19.85-28.59,29.77-9.53-9.93-19.06-19.85-28.59-29.77.65-.67,1.3-1.35,1.95-2.02h0ZM36.24,488.22c-7.61,7.93-15.23,15.85-22.84,23.78,7.61,7.93,15.23,15.86,22.84,23.79,7.61-7.93,15.23-15.86,22.84-23.79-7.62-7.93-15.23-15.85-22.84-23.78Z"/>
  <path class="cls-3" d="M25.22,512c3.67,3.83,7.35,7.65,11.02,11.48,3.67-3.83,7.35-7.65,11.02-11.48-3.67-3.82-7.35-7.65-11.02-11.47-3.67,3.82-7.35,7.65-11.02,11.47h0ZM35.31,528.49c-5.28-5.5-10.56-10.99-15.84-16.49,5.59-5.82,11.18-11.64,16.77-17.46,5.59,5.82,11.18,11.64,16.77,17.46-5.59,5.82-11.18,11.64-16.77,17.46-.31-.33-.62-.65-.93-.97Z"/>
  <path class="cls-4" d="M35.31,516.18c-1.34-1.39-2.67-2.78-4.02-4.18,1.65-1.72,3.3-3.43,4.94-5.15,1.65,1.72,3.3,3.43,4.94,5.15-1.65,1.72-3.3,3.43-4.94,5.15-.31-.32-.62-.64-.93-.97Z"/>
  <path class="cls-2" d="M9.6,445.97c8.88-9.25,17.76-18.49,26.64-27.74,9.53,9.92,19.06,19.85,28.59,29.77-9.53,9.93-19.06,19.85-28.59,29.77-9.53-9.92-19.06-19.85-28.59-29.77.65-.67,1.3-1.35,1.95-2.02h0ZM36.24,424.22c-7.61,7.93-15.23,15.85-22.84,23.78,7.61,7.93,15.23,15.86,22.84,23.79,7.61-7.93,15.23-15.85,22.84-23.79-7.62-7.93-15.23-15.85-22.84-23.78Z"/>
  <path class="cls-3" d="M25.22,448c3.67,3.83,7.35,7.65,11.02,11.48,3.67-3.83,7.35-7.65,11.02-11.48-3.67-3.82-7.35-7.65-11.02-11.47-3.67,3.82-7.35,7.65-11.02,11.47h0ZM35.31,464.49c-5.28-5.5-10.56-10.99-15.84-16.5,5.59-5.81,11.18-11.64,16.77-17.46,5.59,5.82,11.18,11.64,16.77,17.46-5.59,5.82-11.18,11.64-16.77,17.46-.31-.33-.62-.65-.93-.97Z"/>
  <path class="cls-4" d="M35.31,452.18c-1.34-1.39-2.67-2.78-4.02-4.18,1.65-1.72,3.3-3.43,4.94-5.15,1.65,1.72,3.3,3.43,4.94,5.15-1.65,1.72-3.3,3.43-4.94,5.15-.31-.32-.62-.64-.93-.97Z"/>
  <path class="cls-2" d="M9.6,381.97c8.88-9.25,17.76-18.49,26.64-27.74,9.53,9.92,19.06,19.85,28.59,29.77-9.53,9.93-19.06,19.85-28.59,29.77-9.53-9.92-19.06-19.85-28.59-29.77.65-.67,1.3-1.35,1.95-2.02h0ZM36.24,360.22c-7.61,7.93-15.23,15.85-22.84,23.78,7.61,7.93,15.23,15.86,22.84,23.79,7.61-7.93,15.23-15.85,22.84-23.79-7.62-7.93-15.23-15.85-22.84-23.78Z"/>
  <path class="cls-3" d="M25.22,384c3.67,3.83,7.35,7.65,11.02,11.48,3.67-3.83,7.35-7.65,11.02-11.48-3.67-3.82-7.35-7.64-11.02-11.47-3.67,3.83-7.35,7.65-11.02,11.47h0ZM35.31,400.49c-5.28-5.5-10.56-10.99-15.84-16.5,5.59-5.81,11.18-11.64,16.77-17.46,5.59,5.82,11.18,11.64,16.77,17.46-5.59,5.82-11.18,11.64-16.77,17.46-.31-.33-.62-.65-.93-.97Z"/>
  <path class="cls-4" d="M35.31,388.18c-1.34-1.39-2.67-2.78-4.02-4.18,1.65-1.72,3.3-3.43,4.94-5.14,1.65,1.71,3.3,3.43,4.94,5.14-1.65,1.72-3.3,3.43-4.94,5.15-.31-.32-.62-.64-.93-.97Z"/>
  <path class="cls-2" d="M9.6,317.97c8.88-9.25,17.76-18.49,26.64-27.74,9.53,9.92,19.06,19.85,28.59,29.77-9.53,9.93-19.06,19.85-28.59,29.77-9.53-9.92-19.06-19.85-28.59-29.77.65-.67,1.3-1.35,1.95-2.02h0ZM36.24,296.22c-7.61,7.93-15.23,15.85-22.84,23.78,7.61,7.93,15.23,15.86,22.84,23.79,7.61-7.93,15.23-15.85,22.84-23.79-7.62-7.93-15.23-15.85-22.84-23.78Z"/>
  <path class="cls-3" d="M25.22,320c3.67,3.83,7.35,7.65,11.02,11.48,3.67-3.83,7.35-7.65,11.02-11.48-3.67-3.82-7.35-7.64-11.02-11.47-3.67,3.83-7.35,7.65-11.02,11.47h0ZM35.31,336.49c-5.28-5.5-10.56-10.99-15.84-16.5,5.59-5.81,11.18-11.64,16.77-17.46,5.59,5.82,11.18,11.64,16.77,17.46-5.59,5.82-11.18,11.64-16.77,17.46-.31-.33-.62-.65-.93-.97Z"/>
  <path class="cls-4" d="M35.31,324.18c-1.34-1.39-2.67-2.78-4.02-4.18,1.65-1.72,3.3-3.43,4.94-5.14,1.65,1.72,3.3,3.43,4.94,5.14-1.65,1.72-3.3,3.43-4.94,5.15-.31-.32-.62-.64-.93-.97Z"/>
  <path class="cls-2" d="M9.6,253.97c8.88-9.25,17.76-18.49,26.64-27.74,9.53,9.92,19.06,19.85,28.59,29.77-9.53,9.92-19.06,19.85-28.59,29.77-9.53-9.92-19.06-19.85-28.59-29.77.65-.68,1.3-1.35,1.95-2.03h0ZM36.24,232.22c-7.61,7.93-15.23,15.85-22.84,23.79,7.61,7.93,15.23,15.85,22.84,23.78,7.61-7.93,15.23-15.85,22.84-23.78-7.62-7.93-15.23-15.86-22.84-23.79Z"/>
  <path class="cls-3" d="M25.22,256c3.67,3.82,7.35,7.64,11.02,11.47,3.67-3.83,7.35-7.65,11.02-11.47-3.67-3.83-7.35-7.65-11.02-11.48-3.67,3.83-7.35,7.65-11.02,11.48h0ZM35.31,272.49c-5.28-5.5-10.56-10.99-15.84-16.49,5.59-5.82,11.18-11.64,16.77-17.46,5.59,5.82,11.18,11.64,16.77,17.46-5.59,5.81-11.18,11.64-16.77,17.46-.31-.32-.62-.65-.93-.97Z"/>
  <path class="cls-4" d="M35.31,260.18c-1.34-1.4-2.67-2.79-4.02-4.18,1.65-1.72,3.3-3.43,4.94-5.15,1.65,1.72,3.3,3.43,4.94,5.15-1.65,1.71-3.3,3.43-4.94,5.14-.31-.32-.62-.64-.93-.96Z"/>
  <path class="cls-2" d="M9.6,189.97c8.88-9.25,17.76-18.49,26.64-27.74,9.53,9.92,19.06,19.85,28.59,29.77-9.53,9.92-19.06,19.85-28.59,29.77-9.53-9.92-19.06-19.85-28.59-29.77.65-.68,1.3-1.35,1.95-2.03h0ZM36.24,168.22c-7.61,7.93-15.23,15.85-22.84,23.79,7.61,7.93,15.23,15.85,22.84,23.78,7.61-7.93,15.23-15.85,22.84-23.78-7.62-7.93-15.23-15.86-22.84-23.79Z"/>
  <path class="cls-3" d="M25.22,192c3.67,3.82,7.35,7.64,11.02,11.47,3.67-3.83,7.35-7.65,11.02-11.47-3.67-3.83-7.35-7.65-11.02-11.48-3.67,3.83-7.35,7.65-11.02,11.48h0ZM35.31,208.49c-5.28-5.49-10.56-10.99-15.84-16.49,5.59-5.82,11.18-11.64,16.77-17.46,5.59,5.82,11.18,11.64,16.77,17.46-5.59,5.81-11.18,11.64-16.77,17.46-.31-.32-.62-.65-.93-.97Z"/>
  <path class="cls-4" d="M35.31,196.18c-1.34-1.4-2.67-2.79-4.02-4.18,1.65-1.72,3.3-3.43,4.94-5.15,1.65,1.72,3.3,3.43,4.94,5.15-1.65,1.72-3.3,3.43-4.94,5.14-.31-.32-.62-.64-.93-.96Z"/>
  <path class="cls-2" d="M9.6,125.97c8.88-9.25,17.76-18.49,26.64-27.74,9.53,9.92,19.06,19.85,28.59,29.77-9.53,9.92-19.06,19.85-28.59,29.77-9.53-9.92-19.06-19.85-28.59-29.77.65-.68,1.3-1.35,1.95-2.03h0ZM36.24,104.21c-7.61,7.93-15.23,15.85-22.84,23.79,7.61,7.93,15.23,15.85,22.84,23.78,7.61-7.93,15.23-15.85,22.84-23.78-7.62-7.93-15.23-15.86-22.84-23.79Z"/>
  <path class="cls-3" d="M25.22,128c3.67,3.82,7.35,7.64,11.02,11.47,3.67-3.83,7.35-7.65,11.02-11.47-3.67-3.83-7.35-7.65-11.02-11.48-3.67,3.83-7.35,7.65-11.02,11.48h0ZM35.31,144.49c-5.28-5.49-10.56-10.99-15.84-16.49,5.59-5.82,11.18-11.64,16.77-17.46,5.59,5.82,11.18,11.64,16.77,17.46-5.59,5.81-11.18,11.64-16.77,17.46-.31-.32-.62-.65-.93-.97Z"/>
  <path class="cls-4" d="M35.31,132.18c-1.34-1.4-2.67-2.79-4.02-4.18,1.65-1.72,3.3-3.43,4.94-5.15,1.65,1.72,3.3,3.43,4.94,5.15-1.65,1.72-3.3,3.43-4.94,5.15-.31-.33-.62-.65-.93-.97Z"/>
  <path class="cls-2" d="M9.6,61.98c8.88-9.25,17.76-18.5,26.64-27.75,9.53,9.92,19.06,19.85,28.59,29.77-9.53,9.92-19.06,19.85-28.59,29.77-9.53-9.92-19.06-19.85-28.59-29.77.65-.68,1.3-1.35,1.95-2.02h0ZM36.24,40.21c-7.61,7.93-15.23,15.85-22.84,23.79,7.61,7.93,15.23,15.85,22.84,23.78,7.61-7.93,15.23-15.85,22.84-23.78-7.62-7.93-15.23-15.86-22.84-23.79Z"/>
  <path class="cls-3" d="M25.22,64c3.67,3.82,7.35,7.64,11.02,11.47,3.67-3.83,7.35-7.65,11.02-11.47-3.67-3.83-7.35-7.65-11.02-11.48-3.67,3.83-7.35,7.65-11.02,11.48h0ZM35.31,80.49c-5.28-5.49-10.56-10.99-15.84-16.49,5.59-5.82,11.18-11.64,16.77-17.46,5.59,5.82,11.18,11.64,16.77,17.46-5.59,5.81-11.18,11.64-16.77,17.46-.31-.32-.62-.65-.93-.97Z"/>
  <path class="cls-4" d="M35.31,68.18c-1.34-1.4-2.67-2.79-4.02-4.18,1.65-1.72,3.3-3.43,4.94-5.15,1.65,1.72,3.3,3.43,4.94,5.15-1.65,1.72-3.3,3.43-4.94,5.15-.31-.33-.62-.65-.93-.97Z"/>
  <polygon class="cls-2" points="64.82 0 64.82 0 36.24 29.77 7.65 0 7.65 0 13.4 0 13.4 0 36.24 23.78 59.08 0 59.08 0 64.82 0"/>
  <polygon class="cls-3" points="25.22 0 36.24 11.47 47.26 0 47.25 0 53 0 53 0 36.24 17.46 35.31 16.49 19.47 0 19.47 0 25.22 0 25.22 0"/>
  <polygon class="cls-4" points="35.31 4.18 31.29 0 31.29 0 41.18 0 41.18 0 36.24 5.15 35.31 4.18"/>
  <path class="cls-1" d="M25.36,541.97c-5.9-6.15-11.81-12.3-17.72-18.45v5.99c4.64,4.83,9.28,9.66,13.91,14.49l-13.91,14.49v5.99c6.55-6.83,13.11-13.65,19.66-20.48-.65-.67-1.3-1.35-1.95-2.02Z"/>
  <path class="cls-3" d="M9.74,544l-2.09,2.18v5.99l7.84-8.17c-2.61-2.72-5.23-5.44-7.84-8.17v5.99l2.09,2.18Z"/>
  <path class="cls-1" d="M25.36,477.97c-5.9-6.15-11.81-12.3-17.72-18.45v5.99c4.64,4.83,9.28,9.66,13.91,14.49-4.64,4.83-9.28,9.66-13.91,14.49v5.99c6.55-6.83,13.11-13.65,19.66-20.48-.65-.67-1.3-1.35-1.95-2.02Z"/>
  <path class="cls-3" d="M9.74,480l-2.09,2.18v5.99l7.84-8.17c-2.61-2.72-5.23-5.44-7.84-8.16v5.98l2.09,2.18Z"/>
  <path class="cls-1" d="M25.36,413.97c-5.9-6.15-11.81-12.3-17.72-18.45v5.99c4.64,4.83,9.28,9.66,13.91,14.49-4.64,4.83-9.28,9.66-13.91,14.49v5.99c6.55-6.83,13.11-13.65,19.66-20.48-.65-.67-1.3-1.35-1.95-2.02Z"/>
  <path class="cls-3" d="M9.74,416l-2.09,2.18v5.99l7.84-8.17c-2.61-2.72-5.23-5.44-7.84-8.16v5.98l2.09,2.18Z"/>
  <path class="cls-1" d="M25.36,349.97c-5.9-6.15-11.81-12.3-17.72-18.45v5.99c4.64,4.83,9.28,9.66,13.91,14.49-4.64,4.83-9.28,9.66-13.91,14.49v5.99c6.55-6.83,13.11-13.65,19.66-20.48-.65-.67-1.3-1.35-1.95-2.02Z"/>
  <path class="cls-3" d="M9.74,352l-2.09,2.18v5.99l7.84-8.17c-2.61-2.72-5.23-5.44-7.84-8.16v5.98l2.09,2.18Z"/>
  <path class="cls-1" d="M25.36,285.97c-5.9-6.15-11.81-12.3-17.72-18.45v5.99c4.64,4.83,9.28,9.66,13.91,14.49-4.64,4.83-9.28,9.66-13.91,14.49v5.99c6.55-6.83,13.11-13.65,19.66-20.47-.65-.68-1.3-1.35-1.95-2.03Z"/>
  <path class="cls-3" d="M9.74,288l-2.09,2.18v5.98c2.61-2.72,5.23-5.44,7.84-8.16l-7.84-8.17v5.99l2.09,2.18Z"/>
  <path class="cls-1" d="M25.36,221.97c-5.9-6.15-11.81-12.3-17.72-18.45v5.99c4.64,4.83,9.28,9.66,13.91,14.49-4.64,4.83-9.28,9.66-13.91,14.49v5.99c6.55-6.83,13.11-13.65,19.66-20.47-.65-.68-1.3-1.35-1.95-2.03Z"/>
  <path class="cls-3" d="M9.74,224l-2.09,2.18v5.99c2.61-2.72,5.23-5.44,7.84-8.16l-7.84-8.17v5.99l2.09,2.18Z"/>
  <path class="cls-1" d="M25.36,157.97c-5.9-6.15-11.81-12.3-17.72-18.45v5.99c4.64,4.83,9.28,9.66,13.91,14.49-4.64,4.83-9.28,9.66-13.91,14.49v5.99c6.55-6.83,13.11-13.65,19.66-20.47-.65-.68-1.3-1.35-1.95-2.03Z"/>
  <path class="cls-3" d="M9.74,160l-2.09,2.18v5.99c2.61-2.72,5.23-5.44,7.84-8.16l-7.84-8.17v5.99l2.09,2.18Z"/>
  <path class="cls-1" d="M25.36,93.98c-5.9-6.15-11.81-12.31-17.72-18.46v5.99c4.64,4.83,9.28,9.66,13.91,14.49-4.64,4.83-9.28,9.66-13.91,14.49v5.99c6.55-6.83,13.11-13.65,19.66-20.47-.65-.68-1.3-1.35-1.95-2.02Z"/>
  <path class="cls-3" d="M9.74,96l-2.09,2.18v5.99c2.61-2.72,5.23-5.44,7.84-8.16l-7.84-8.17v5.99l2.09,2.18Z"/>
  <polygon class="cls-1" points="25.36 29.98 7.65 11.52 7.65 17.51 21.56 32 7.65 46.49 7.65 52.48 27.31 32 25.36 29.98"/>
  <polygon class="cls-3" points="9.74 32 7.65 34.18 7.65 40.17 15.49 32 7.65 23.83 7.65 29.82 9.74 32"/>
  <path class="cls-1" d="M47.11,541.97c5.9-6.15,11.81-12.3,17.72-18.45v5.99c-4.64,4.83-9.28,9.66-13.91,14.49l13.91,14.49v5.99c-6.55-6.83-13.11-13.65-19.66-20.48.65-.67,1.3-1.35,1.95-2.02Z"/>
  <path class="cls-3" d="M62.73,544l2.09,2.18v5.99l-7.84-8.17c2.61-2.72,5.23-5.44,7.84-8.17v5.99l-2.09,2.18Z"/>
  <path class="cls-1" d="M47.11,477.97c5.9-6.15,11.81-12.3,17.72-18.45v5.99c-4.64,4.83-9.28,9.66-13.91,14.49,4.64,4.83,9.28,9.66,13.91,14.49v5.99c-6.55-6.83-13.11-13.65-19.66-20.48.65-.67,1.3-1.35,1.95-2.02Z"/>
  <path class="cls-3" d="M62.73,480l2.09,2.18v5.99l-7.84-8.17c2.61-2.72,5.23-5.44,7.84-8.16v5.98l-2.09,2.18Z"/>
  <path class="cls-1" d="M47.11,413.97c5.9-6.15,11.81-12.3,17.72-18.45v5.99c-4.64,4.83-9.28,9.66-13.91,14.49,4.64,4.83,9.28,9.66,13.91,14.49v5.99c-6.55-6.83-13.11-13.65-19.66-20.48.65-.67,1.3-1.35,1.95-2.02Z"/>
  <path class="cls-3" d="M62.73,416l2.09,2.18v5.99l-7.84-8.17c2.61-2.72,5.23-5.44,7.84-8.16v5.98l-2.09,2.18Z"/>
  <path class="cls-1" d="M47.11,349.97c5.9-6.15,11.81-12.3,17.72-18.45v5.99c-4.64,4.83-9.28,9.66-13.91,14.49,4.64,4.83,9.28,9.66,13.91,14.49v5.99c-6.55-6.83-13.11-13.65-19.66-20.48.65-.67,1.3-1.35,1.95-2.02Z"/>
  <path class="cls-3" d="M62.73,352l2.09,2.18v5.99l-7.84-8.17c2.61-2.72,5.23-5.44,7.84-8.16v5.98l-2.09,2.18Z"/>
  <path class="cls-1" d="M47.11,285.97c5.9-6.15,11.81-12.3,17.72-18.45v5.99c-4.64,4.83-9.28,9.66-13.91,14.49,4.64,4.83,9.28,9.66,13.91,14.49v5.99c-6.55-6.83-13.11-13.65-19.66-20.47.65-.68,1.3-1.35,1.95-2.03Z"/>
  <path class="cls-3" d="M62.73,288l2.09,2.18v5.98c-2.61-2.72-5.23-5.44-7.84-8.16l7.84-8.17v5.99l-2.09,2.18Z"/>
  <path class="cls-1" d="M47.11,221.97c5.9-6.15,11.81-12.3,17.72-18.45v5.99c-4.64,4.83-9.28,9.66-13.91,14.49,4.64,4.83,9.28,9.66,13.91,14.49v5.99c-6.55-6.83-13.11-13.65-19.66-20.47.65-.68,1.3-1.35,1.95-2.03Z"/>
  <path class="cls-3" d="M62.73,224l2.09,2.18v5.99c-2.61-2.72-5.23-5.44-7.84-8.16l7.84-8.17v5.99l-2.09,2.18Z"/>
  <path class="cls-1" d="M47.11,157.97c5.9-6.15,11.81-12.3,17.72-18.45v5.99c-4.64,4.83-9.28,9.66-13.91,14.49,4.64,4.83,9.28,9.66,13.91,14.49v5.99c-6.55-6.83-13.11-13.65-19.66-20.47.65-.68,1.3-1.35,1.95-2.03Z"/>
  <path class="cls-3" d="M62.73,160l2.09,2.18v5.99c-2.61-2.72-5.23-5.44-7.84-8.16l7.84-8.17v5.99l-2.09,2.18Z"/>
  <path class="cls-1" d="M47.11,93.98c5.9-6.15,11.81-12.31,17.72-18.46v5.99c-4.64,4.83-9.28,9.66-13.91,14.49,4.64,4.83,9.28,9.66,13.91,14.49v5.99c-6.55-6.83-13.11-13.65-19.66-20.47.65-.68,1.3-1.35,1.95-2.02Z"/>
  <path class="cls-3" d="M62.73,96l2.09,2.18v5.99c-2.61-2.72-5.23-5.44-7.84-8.16l7.84-8.17v5.99l-2.09,2.18Z"/>
  <polygon class="cls-1" points="47.11 29.98 64.82 11.52 64.82 17.51 50.91 32 64.82 46.49 64.82 52.48 45.16 32 47.11 29.98"/>
  <polygon class="cls-3" points="62.73 32 64.82 34.18 64.82 40.17 56.98 32 64.82 23.83 64.82 29.82 62.73 32"/>
  <path class="cls-2" d="M0,512c.6,6.84,1.19,13.68,1.79,20.53.49-5.57.97-11.12,1.46-16.67.11-1.29.23-2.58.34-3.86-.6-6.84-1.19-13.68-1.79-20.53-.6,6.84-1.19,13.68-1.79,20.53Z"/>
  <path class="cls-2" d="M0,448c.6,6.84,1.19,13.68,1.79,20.53.49-5.57.97-11.12,1.46-16.67.11-1.29.23-2.58.34-3.86-.6-6.84-1.19-13.68-1.79-20.53-.6,6.84-1.19,13.68-1.79,20.53Z"/>
  <path class="cls-2" d="M0,384c.6,6.84,1.19,13.68,1.79,20.53.49-5.57.97-11.12,1.46-16.67.11-1.29.23-2.58.34-3.86-.6-6.84-1.19-13.68-1.79-20.53-.6,6.84-1.19,13.68-1.79,20.53Z"/>
  <path class="cls-2" d="M0,320c.6,6.84,1.19,13.68,1.79,20.53.49-5.57.97-11.12,1.46-16.67.11-1.29.23-2.58.34-3.86-.6-6.84-1.19-13.68-1.79-20.53-.6,6.84-1.19,13.68-1.79,20.53Z"/>
  <path class="cls-2" d="M0,256c.6,6.84,1.19,13.68,1.79,20.53.49-5.57.97-11.12,1.46-16.67.11-1.29.23-2.58.34-3.86-.6-6.84-1.19-13.68-1.79-20.53C1.2,242.32.6,249.16,0,256Z"/>
  <path class="cls-2" d="M0,192c.6,6.84,1.19,13.68,1.79,20.53.49-5.57.97-11.12,1.46-16.67.11-1.29.23-2.58.34-3.86-.6-6.84-1.19-13.68-1.79-20.53C1.2,178.32.6,185.16,0,192Z"/>
  <path class="cls-2" d="M0,128c.6,6.84,1.19,13.68,1.79,20.53.49-5.57.97-11.12,1.46-16.67.11-1.29.23-2.58.34-3.86-.6-6.84-1.19-13.68-1.79-20.53C1.2,114.32.6,121.16,0,128Z"/>
  <path class="cls-2" d="M0,64c.6,6.84,1.19,13.68,1.79,20.53.49-5.57.97-11.12,1.46-16.67.11-1.29.23-2.58.34-3.86-.6-6.84-1.19-13.68-1.79-20.53C1.2,50.32.6,57.16,0,64Z"/>
  <path class="cls-2" d="M0,0c.6,6.84,1.19,13.68,1.79,20.53.49-5.57.97-11.12,1.46-16.67C3.36,2.57,3.47,1.28,3.58,0H0Z"/>
  <polygon class="cls-3" points="25.22 576 25.22 576 19.47 576 19.47 576 36.24 558.54 53 576 53 576 47.25 576 47.26 576 36.24 564.53 25.22 576"/>
  <polygon class="cls-4" points="31.29 576 31.29 576 36.24 570.85 41.18 576 41.18 576 31.29 576"/>
  <path class="cls-2" d="M3.58,576c-.6-6.84-1.19-13.68-1.79-20.53-.6,6.84-1.19,13.68-1.79,20.53h3.58Z"/>
  <path class="cls-2" d="M72.47,576c-.6-6.84-1.19-13.68-1.79-20.53-.6,6.84-1.19,13.68-1.79,20.53h3.58Z"/>
  <path class="cls-2" d="M68.89,512c.6,6.84,1.19,13.68,1.79,20.53.49-5.57.97-11.12,1.46-16.67.11-1.29.23-2.58.34-3.86-.6-6.84-1.19-13.68-1.79-20.53-.6,6.84-1.19,13.68-1.79,20.53Z"/>
  <path class="cls-2" d="M68.89,448c.6,6.84,1.19,13.68,1.79,20.53.49-5.57.97-11.12,1.46-16.67.11-1.29.23-2.58.34-3.86-.6-6.84-1.19-13.68-1.79-20.53-.6,6.84-1.19,13.68-1.79,20.53Z"/>
  <path class="cls-2" d="M68.89,384c.6,6.84,1.19,13.68,1.79,20.53.49-5.57.97-11.12,1.46-16.67.11-1.29.23-2.58.34-3.86-.6-6.84-1.19-13.68-1.79-20.53-.6,6.84-1.19,13.68-1.79,20.53Z"/>
  <path class="cls-2" d="M68.89,320c.6,6.84,1.19,13.68,1.79,20.53.49-5.57.97-11.12,1.46-16.67.11-1.29.23-2.58.34-3.86-.6-6.84-1.19-13.68-1.79-20.53-.6,6.84-1.19,13.68-1.79,20.53Z"/>
  <path class="cls-2" d="M68.89,256c.6,6.84,1.19,13.68,1.79,20.53.49-5.57.97-11.12,1.46-16.67.11-1.29.23-2.58.34-3.86-.6-6.84-1.19-13.68-1.79-20.53-.6,6.84-1.19,13.68-1.79,20.53Z"/>
  <path class="cls-2" d="M68.89,192c.6,6.84,1.19,13.68,1.79,20.53.49-5.57.97-11.12,1.46-16.67.11-1.29.23-2.58.34-3.86-.6-6.84-1.19-13.68-1.79-20.53-.6,6.84-1.19,13.68-1.79,20.53Z"/>
  <path class="cls-2" d="M68.89,128c.6,6.84,1.19,13.68,1.79,20.53.49-5.57.97-11.12,1.46-16.67.11-1.29.23-2.58.34-3.86-.6-6.84-1.19-13.68-1.79-20.53-.6,6.84-1.19,13.68-1.79,20.53Z"/>
  <path class="cls-2" d="M68.89,64c.6,6.84,1.19,13.68,1.79,20.53.49-5.57.97-11.12,1.46-16.67.11-1.29.23-2.58.34-3.86-.6-6.84-1.19-13.68-1.79-20.53-.6,6.84-1.19,13.68-1.79,20.53Z"/>
  <path class="cls-2" d="M68.89,0c.6,6.84,1.19,13.68,1.79,20.53.49-5.57.97-11.12,1.46-16.67.11-1.29.23-2.58.34-3.86h-3.58Z"/>
</svg>